<svg width="29" height="35" viewBox="0 0 29 35" fill="none" xmlns="http://www.w3.org/2000/svg">
<g clip-path="url(#clip0_23_117)">
<path d="M0.4375 1.02701C1.86871 0.0903884 3.29994 0.386162 4.5831 0.829824C6.35978 1.47067 8.0871 2.3087 9.66637 3.29461C16.8224 8.027 21.1161 14.7805 22.8927 23.1115C23.3369 25.2312 23.485 27.4495 23.7811 29.865C25.7552 28.7312 26.7916 26.5129 28.7657 25.2312C29.0124 26.2171 28.5189 26.858 28.1241 27.4002C26.4955 29.6185 24.8175 31.8368 23.0902 34.0059C22.2512 35.0411 21.6096 35.1397 20.7213 34.2523C18.8459 32.4284 17.7108 30.2101 17.3653 27.6467C17.3653 27.5481 17.5134 27.4002 17.7108 27.1538C19.8329 27.696 19.3394 30.4073 21.1654 31.3932C21.9551 27.9918 21.3628 24.7383 20.4745 21.5833C19.5368 18.2805 18.303 15.1256 16.3289 12.3157C14.4042 9.55517 11.9859 7.33686 9.32089 5.26644C6.70523 3.14672 3.7441 1.81574 0.4375 1.02701Z" fill="white"/>
</g>
<defs>
<clipPath id="clip0_23_117">
<rect width="28.3944" height="34.4457" fill="white" transform="translate(0.4375 0.410156)"/>
</clipPath>
</defs>
</svg>
